# Blender v3.0.0 OBJ File: ''
# www.blender.org
mtllib ft_player_hand.mtl
o cylinder
v 0.093750 -2.000000 0.162379
v 0.000000 -2.000000 0.187500
v 0.000000 -2.000000 -0.000000
v 0.093750 -0.000000 0.162380
v 0.000000 -0.000000 0.187500
v 0.000000 0.040652 0.000000
v 0.162380 -2.000000 0.093750
v 0.162380 -0.000000 0.093750
v 0.187500 -2.000000 -0.000000
v 0.187500 -0.000000 0.000000
v 0.162380 -2.000000 -0.093750
v 0.162380 0.000000 -0.093750
v 0.093750 -2.000000 -0.162380
v 0.093750 0.000000 -0.162380
v 0.000000 -2.000000 -0.187500
v 0.000000 0.000000 -0.187500
v -0.093750 -2.000000 -0.162380
v -0.093750 0.000000 -0.162380
v -0.162380 -2.000000 -0.093750
v -0.162380 0.000000 -0.093750
v -0.187500 -2.000000 -0.000000
v -0.187500 0.000000 -0.000000
v -0.162380 -2.000000 0.093750
v -0.162380 -0.000000 0.093750
v -0.093750 -2.000000 0.162379
v -0.093750 -0.000000 0.162380
v 0.046875 0.040652 -0.081190
v -0.046875 0.040652 0.081190
v 0.081190 0.040652 0.046875
v -0.081190 0.040652 -0.046875
v 0.046875 0.040652 0.081190
v -0.046875 0.040652 -0.081190
v 0.081190 0.040652 -0.046875
v -0.081190 0.040652 0.046875
v 0.093750 0.040652 0.000000
v -0.093750 0.040652 0.000000
v 0.000000 0.040652 0.093750
v 0.000000 0.040652 -0.093750
vt 0.140625 0.487441
vt 0.093750 0.500000
vt 0.093750 0.406250
vt 0.545219 0.500000
vt 0.593750 0.500000
vt 0.593750 1.000000
vt 0.545219 1.000000
vt 0.281250 0.312500
vt 0.328125 0.325059
vt 0.304688 0.365655
vt 0.281250 0.406250
vt 0.281250 0.359375
vt 0.174941 0.453125
vt 0.166906 0.500000
vt 0.215438 0.500000
vt 0.215438 1.000000
vt 0.166906 1.000000
vt 0.362441 0.359375
vt 0.321845 0.382812
vt 0.187500 0.406250
vt 0.263969 0.500000
vt 0.263969 1.000000
vt 0.375000 0.406250
vt 0.328125 0.406250
vt 0.174941 0.359375
vt 0.312500 0.500000
vt 0.312500 1.000000
vt 0.362441 0.453125
vt 0.321845 0.429688
vt 0.140625 0.325059
vt 0.361031 0.500000
vt 0.361031 1.000000
vt 0.328125 0.487441
vt 0.304688 0.446845
vt 0.093750 0.312500
vt 0.409562 0.500000
vt 0.409562 1.000000
vt 0.281250 0.500000
vt 0.281250 0.453125
vt 0.046875 0.325059
vt 0.458094 0.500000
vt 0.458094 1.000000
vt 0.234375 0.487441
vt 0.257812 0.446845
vt 0.012559 0.359375
vt 0.375000 0.000000
vt 0.437500 0.000000
vt 0.437500 0.500000
vt 0.375000 0.500000
vt 0.200059 0.453125
vt 0.240655 0.429688
vt 0.000000 0.406250
vt 0.000000 0.500000
vt 0.048531 0.500000
vt 0.048531 1.000000
vt 0.000000 1.000000
vt 0.187500 0.406250
vt 0.234375 0.406250
vt 0.012559 0.453125
vt 0.097062 0.500000
vt 0.097062 1.000000
vt 0.200059 0.359375
vt 0.240655 0.382812
vt 0.046875 0.487441
vt 0.145594 0.500000
vt 0.145594 1.000000
vt 0.234375 0.325059
vt 0.257812 0.365655
vt 0.496688 0.500000
vt 0.496688 1.000000
vn 0.0000 -1.0000 0.0000
vn 0.2588 -0.0000 0.9659
vn 0.0000 0.9510 0.3093
vn 0.1546 0.9510 0.2678
vn -0.0000 1.0000 0.0000
vn 0.7071 -0.0000 0.7071
vn 0.2678 0.9510 0.1546
vn 0.9659 -0.0000 0.2588
vn 0.3093 0.9510 0.0000
vn 0.9659 0.0000 -0.2588
vn 0.2678 0.9510 -0.1546
vn 0.7071 0.0000 -0.7071
vn 0.1546 0.9510 -0.2678
vn 0.2588 0.0000 -0.9659
vn 0.0000 0.9510 -0.3093
vn -0.2588 0.0000 -0.9659
vn -0.1546 0.9510 -0.2678
vn -0.7071 0.0000 -0.7071
vn -0.2678 0.9510 -0.1546
vn -0.9659 0.0000 -0.2588
vn -0.3093 0.9510 0.0000
vn -0.9659 -0.0000 0.2588
vn -0.2678 0.9510 0.1546
vn -0.7071 -0.0000 0.7071
vn -0.1546 0.9510 0.2678
vn -0.2588 -0.0000 0.9659
usemtl m_0
s 1
f 1/1/1 2/2/1 3/3/1
f 2/4/2 1/5/2 4/6/2 5/7/2
f 5/8/3 4/9/4 31/10/4 6/11/5 37/12/3
f 7/13/1 1/1/1 3/3/1
f 1/14/6 7/15/6 8/16/6 4/17/6
f 4/9/4 8/18/7 29/19/7 6/11/5 31/10/4
f 9/20/1 7/13/1 3/3/1
f 7/15/8 9/21/8 10/22/8 8/16/8
f 8/18/7 10/23/9 35/24/9 6/11/5 29/19/7
f 11/25/1 9/20/1 3/3/1
f 9/21/10 11/26/10 12/27/10 10/22/10
f 10/23/9 12/28/11 33/29/11 6/11/5 35/24/9
f 13/30/1 11/25/1 3/3/1
f 11/26/12 13/31/12 14/32/12 12/27/12
f 12/28/11 14/33/13 27/34/13 6/11/5 33/29/11
f 15/35/1 13/30/1 3/3/1
f 13/31/14 15/36/14 16/37/14 14/32/14
f 14/33/13 16/38/15 38/39/15 6/11/5 27/34/13
f 17/40/1 15/35/1 3/3/1
f 15/36/16 17/41/16 18/42/16 16/37/16
f 16/38/15 18/43/17 32/44/17 6/11/5 38/39/15
f 19/45/1 17/40/1 3/3/1
f 17/46/18 19/47/18 20/48/18 18/49/18
f 18/43/17 20/50/19 30/51/19 6/11/5 32/44/17
f 21/52/1 19/45/1 3/3/1
f 19/53/20 21/54/20 22/55/20 20/56/20
f 20/50/19 22/57/21 36/58/21 6/11/5 30/51/19
f 23/59/1 21/52/1 3/3/1
f 21/54/22 23/60/22 24/61/22 22/55/22
f 22/57/21 24/62/23 34/63/23 6/11/5 36/58/21
f 25/64/1 23/59/1 3/3/1
f 23/60/24 25/65/24 26/66/24 24/61/24
f 24/62/23 26/67/25 28/68/25 6/11/5 34/63/23
f 2/2/1 25/64/1 3/3/1
f 25/69/26 2/4/26 5/7/26 26/70/26
f 26/67/25 5/8/3 37/12/3 6/11/5 28/68/25
