# Made in Blockbench 4.2.2
mtllib ft_animals_guinea_pig.mtl

o cube
v -1.2500000000000002 -2.4999999999999996 -2.5000000000000004
v -1.2500000000000002 -2.5000000000000004 2.4999999999999996
v -1.2500000000000007 -5 -2.5000000000000004
v -1.2500000000000007 -5 2.4999999999999996
v 1.2499999999999998 -2.5000000000000004 2.4999999999999996
v 1.2499999999999998 -2.4999999999999996 -2.5000000000000004
v 1.2499999999999993 -5 2.4999999999999996
v 1.2499999999999993 -5 -2.5000000000000004
vt 0.25 0.5
vt 0.5 0.5
vt 0.5 0.25
vt 0.25 0.25
vt 0 1
vt 0.5 1
vt 0.5 0.75
vt 0 0.75
vt 0.5 0.5
vt 0.75 0.5
vt 0.75 0.25
vt 0.5 0.25
vt 0 0.75
vt 0.5 0.75
vt 0.5 0.5
vt 0 0.5
vt 0.25 0
vt 0 0
vt 0 0.5
vt 0.25 0.5
vt 0.75 1
vt 0.5 1
vt 0.5 0.5
vt 0.75 0.5
vn -1.4997597826618576e-32 -1.2246467991473532e-16 1
vn -1 1.2246467991473532e-16 0
vn 1.4997597826618576e-32 1.2246467991473532e-16 -1
vn 1 -1.2246467991473532e-16 0
vn 1.2246467991473532e-16 1 1.2246467991473532e-16
vn -1.2246467991473532e-16 -1 -1.2246467991473532e-16
usemtl m_0
f 4/4/1 7/3/1 5/2/1 2/1/1
f 3/8/2 4/7/2 2/6/2 1/5/2
f 8/12/3 3/11/3 1/10/3 6/9/3
f 7/16/4 8/15/4 6/14/4 5/13/4
f 6/20/5 1/19/5 2/18/5 5/17/5
f 7/24/6 4/23/6 3/22/6 8/21/6