# Blender v3.0.0 OBJ File: ''
# www.blender.org
mtllib ft_lead_sugar.mtl
o Icosphere
v 0.096592 -0.421534 0.277988
v -0.230223 -0.414889 0.177087
v -0.236539 -0.420875 -0.169623
v 0.082696 -0.426714 -0.269341
v 0.288712 -0.417825 -0.008238
v -0.001443 -0.263875 0.003347
v 0.367709 -0.557397 0.119474
v 0.367709 -0.557397 -0.119474
v 0.000000 -0.557397 0.386632
v 0.227257 -0.557397 0.312791
v -0.367709 -0.557397 0.119474
v -0.227257 -0.557397 0.312791
v -0.227257 -0.557397 -0.312791
v -0.367709 -0.557397 -0.119474
v 0.227257 -0.557397 -0.312791
v 0.000000 -0.557397 -0.386632
v 0.220600 -0.401913 0.150195
v -0.079770 -0.397282 0.258088
v -0.273016 -0.395742 0.008761
v -0.096604 -0.369172 -0.295193
v 0.235444 -0.380821 -0.173186
v 0.051456 -0.292176 0.163423
v 0.153405 -0.312945 -0.003280
v -0.112817 -0.335524 0.086009
v -0.142729 -0.290340 -0.095558
v 0.052012 -0.284697 -0.160076
vt 0.181819 0.314921
vt 0.272728 0.314921
vt 0.227273 0.393651
vt 0.000000 0.314921
vt 0.090910 0.314921
vt 0.045455 0.393651
vt 0.727273 0.314921
vt 0.818182 0.314921
vt 0.772727 0.393651
vt 0.545455 0.314921
vt 0.636364 0.314921
vt 0.590909 0.393651
vt 0.363637 0.314921
vt 0.454546 0.314921
vt 0.409092 0.393651
vt 0.500000 0.393651
vt 0.454546 0.472382
vt 0.681818 0.393651
vt 0.636364 0.472382
vt 0.863636 0.393651
vt 0.818182 0.472382
vt 0.909091 0.314921
vt 0.136365 0.393651
vt 0.090910 0.472382
vt 0.318182 0.393651
vt 0.272728 0.472382
vt 0.409092 0.236191
vt 0.500000 0.236191
vt 0.590909 0.236191
vt 0.681818 0.236191
vt 0.772727 0.236191
vt 0.863636 0.236191
vt 0.045455 0.236191
vt 0.136365 0.236191
vt 0.227273 0.236191
vt 0.318182 0.236191
vt 0.954545 0.236191
vn 0.4789 0.6697 0.5675
vn -0.3034 0.8768 0.3730
vn -0.7192 0.6524 -0.2390
vn 0.3036 0.6213 -0.7223
vn 0.6120 0.7906 -0.0203
vn 0.3011 0.9533 -0.0230
vn 0.4525 0.8817 -0.1338
vn 0.2741 0.6229 -0.7327
vn -0.0787 0.9854 -0.1513
vn -0.1567 0.9057 -0.3939
vn -0.6155 0.6741 -0.4084
vn -0.3631 0.8884 0.2809
vn -0.4546 0.8439 0.2849
vn -0.4309 0.8778 0.2094
vn -0.3654 0.8884 0.2778
vn -0.3982 0.8364 0.3766
vn 0.0070 0.6644 0.7474
vn 0.3040 0.9503 0.0675
vn 0.5422 0.8079 0.2309
vn 0.6065 0.7738 0.1830
vn 0.8123 0.5674 -0.1350
vn 0.7440 0.3929 -0.5405
vn 0.3001 0.5830 -0.7550
vn 0.2860 0.5335 -0.7960
vn -0.2957 0.2903 -0.9101
vn -0.6700 0.5151 -0.5346
vn -0.7426 0.6253 -0.2399
vn -0.8629 0.5054 0.0000
vn -0.7453 0.6142 0.2593
vn -0.4273 0.6188 0.6592
vn -0.2639 0.5205 0.8121
vn -0.0020 0.6254 0.7803
vn 0.5037 0.6346 0.5862
vn 0.6785 0.5446 0.4930
vn 0.7276 0.6393 0.2486
vn 0.2581 0.5497 -0.7945
vn -0.7055 0.4895 -0.5125
vn 0.0000 -1.0000 0.0000
vn -0.7110 0.4771 0.5166
vn 0.2718 0.4757 0.8366
vn 0.8703 0.4926 0.0000
usemtl None
s off
f 1/1/1 17/2/1 22/3/1
f 2/4/2 18/5/2 24/6/2
f 3/7/3 19/8/3 25/9/3
f 4/10/4 20/11/4 26/12/4
f 5/13/5 21/14/5 23/15/5
f 23/15/6 26/16/6 6/17/6
f 23/15/7 21/14/7 26/16/7
f 21/14/8 4/10/8 26/16/8
f 26/12/9 25/18/9 6/19/9
f 26/12/10 20/11/10 25/18/10
f 20/11/11 3/7/11 25/18/11
f 25/9/12 24/20/12 6/21/12
f 25/9/13 19/8/13 24/20/13
f 19/8/14 2/22/14 24/20/14
f 24/6/15 22/23/15 6/24/15
f 24/6/16 18/5/16 22/23/16
f 18/5/17 1/1/17 22/23/17
f 22/3/18 23/25/18 6/26/18
f 22/3/19 17/2/19 23/25/19
f 17/2/20 5/13/20 23/25/20
f 8/27/21 21/14/21 5/13/21
f 8/27/22 15/28/22 21/14/22
f 15/28/23 4/10/23 21/14/23
f 16/29/24 20/11/24 4/10/24
f 16/29/25 13/30/25 20/11/25
f 13/30/26 3/7/26 20/11/26
f 14/31/27 19/8/27 3/7/27
f 14/31/28 11/32/28 19/8/28
f 11/32/29 2/22/29 19/8/29
f 12/33/30 18/5/30 2/4/30
f 12/33/31 9/34/31 18/5/31
f 9/34/32 1/1/32 18/5/32
f 10/35/33 17/2/33 1/1/33
f 10/35/34 7/36/34 17/2/34
f 7/36/35 5/13/35 17/2/35
f 15/28/36 16/29/36 4/10/36
f 13/30/37 14/31/37 3/7/37
f 8/27/38 7/36/38 10/35/38 9/34/38 12/37/38 11/32/38 14/31/38 13/30/38 16/29/38 15/28/38
f 11/32/39 12/37/39 2/22/39
f 9/34/40 10/35/40 1/1/40
f 7/36/41 8/27/41 5/13/41
