# Blender v3.0.0 OBJ File: ''
# www.blender.org
mtllib bt_lead_axe.mtl
o Cube_Cube.001
v 0.457928 -1.119498 -0.138644
v 0.095092 3.129175 0.225001
v 0.391827 0.398576 -0.009044
v -0.033249 3.139426 0.110890
v 0.237071 -1.127136 0.214821
v 0.356364 3.119240 0.103133
v 0.141815 3.112652 -0.037413
v 0.413536 0.392403 0.145456
v 0.047326 0.389206 0.272070
v 0.029503 3.144078 0.169543
v -0.130286 0.388772 0.136105
v 0.200988 0.389730 0.240483
v 0.042965 3.143510 0.033804
v 0.521176 -1.119863 0.063524
v 0.450691 0.393599 0.109260
v -0.198689 -1.128784 0.117833
v 0.218362 3.150552 0.165010
v 0.269531 0.390081 0.227528
v 0.354391 0.399603 -0.051984
v 0.007788 0.391804 -0.013605
v -0.050891 0.388930 0.220640
v -0.026145 0.389001 0.235060
v -0.053285 2.075478 0.327908
v -0.001571 3.144222 0.141099
v -0.248946 -2.646796 0.114446
v -0.112904 0.388788 0.160211
v 0.090042 3.131548 -0.003049
v -0.043628 0.390458 0.029303
v 0.500792 -2.635277 0.067588
v 0.311455 0.398759 -0.070677
v 0.154191 3.145468 0.195675
v 0.439977 0.395574 0.071578
v -0.050311 -2.643418 0.264627
v 0.062109 3.139091 0.197780
v -0.270653 2.072065 0.155925
v 0.322956 0.390644 0.204590
v 0.002838 3.146492 0.072825
v 0.199846 2.065902 0.036284
v 0.089886 0.389293 0.262754
v 0.411846 2.071156 0.116517
v -0.001492 -1.127106 0.268348
v 0.286774 3.141409 0.133899
v 0.132445 0.389380 0.253438
v 0.376381 0.391207 0.181652
v 0.204611 -2.644352 0.202114
v 0.140520 2.087183 0.294985
v 0.429262 0.397549 0.033896
v 0.268519 0.397916 -0.089371
v 0.406327 -2.635657 -0.068091
v 0.124637 0.394895 -0.075774
v -0.095045 0.389113 0.072211
v -0.033723 -2.641067 -0.023814
v -0.113514 2.063643 0.008973
v -0.095522 0.388805 0.184316
v -0.001400 0.389073 0.249481
v -0.202107 -2.648548 0.196356
v -0.212914 2.077442 0.263810
v -0.139523 2.077287 0.302339
v -0.135740 -2.646717 0.235666
v -0.239536 -2.648253 0.150755
v -0.215019 2.068821 0.085648
v -0.181284 -2.645982 0.057845
v 0.140017 -2.636290 -0.093998
v 0.327686 -2.634568 -0.103753
v 0.470209 -2.636421 -0.008189
v 0.336969 2.080751 0.201749
v 0.407720 -2.639766 0.102579
v 0.054954 -2.644748 0.249823
v 0.002227 2.081142 0.317712
v -0.012154 2.060648 -0.043950
v -0.257946 2.075599 0.214434
v 0.665493 1.991748 -0.039108
v 0.801809 3.219599 -0.137258
v 0.216773 2.535822 0.136492
v 0.256731 2.895744 0.107721
v 0.478247 1.986231 -0.139791
v 0.614563 3.214081 -0.237941
v 0.157048 2.534063 0.104378
v 0.197006 2.893984 0.075607
v 0.374408 2.075953 0.159133
v 0.162407 2.070699 0.078899
v 0.287127 2.070928 0.097708
v 0.268407 2.073326 0.119016
v 0.249688 2.075725 0.140324
v 0.355688 2.078352 0.180441
v 0.093846 2.063275 -0.003833
v 0.393127 2.073555 0.137825
v 0.305846 2.068529 0.076400
v 0.075127 2.065674 0.017475
v 0.181127 2.068301 0.057591
v 0.066213 0.393349 -0.044689
v -0.112665 0.388943 0.104158
v -0.078852 -1.123689 -0.087907
v -0.073206 0.388867 0.202478
v 0.022963 0.389140 0.260775
v -0.126510 -1.129809 0.208489
v -0.168924 -2.647633 0.216011
v -0.093026 -2.645068 0.250146
v -0.068570 -1.128822 0.242573
v -0.244241 -2.647525 0.132600
v -0.220822 -2.648401 0.173555
v -0.169576 -1.129672 0.165875
v -0.107504 -2.643525 0.017016
v -0.215115 -2.646389 0.086146
v -0.176417 -1.127519 0.032966
v 0.053147 -2.638679 -0.058906
v 0.148447 -1.123337 -0.153079
v 0.367007 -2.635113 -0.085922
v 0.352478 -1.121208 -0.169315
v 0.485501 -2.635849 0.029700
v 0.438268 -2.636039 -0.038140
v 0.539800 -1.118379 -0.049383
v 0.306166 -2.642059 0.152347
v 0.454256 -2.637521 0.085084
v 0.405800 -1.123976 0.135253
v 0.002322 -2.644083 0.257225
v 0.129783 -2.644550 0.225968
v 0.233852 -2.635429 -0.098876
v 0.093700 -1.127684 0.251630
v 0.196578 0.396405 -0.082572
v 0.165385 -1.127410 0.233226
v 0.464259 -1.121901 0.099182
v 0.507163 -1.118854 -0.100554
v 0.027898 -1.123555 -0.126334
v -0.185903 -1.128181 0.076925
v -0.147562 -1.129753 0.187574
v -0.035031 -1.127964 0.255461
v -0.097534 -1.129316 0.225536
v -0.183522 -1.129242 0.142370
v -0.139265 -1.125085 -0.031359
v 0.406147 -1.120503 -0.156173
v 0.535263 -1.118746 0.007368
v 0.315276 -1.125691 0.178181
v 0.046104 -1.127395 0.259989
v 0.215215 -1.119512 -0.090724
vt 0.880823 0.395316
vt 0.899631 0.395316
vt 0.899631 0.414124
vt 0.880823 0.414124
vt 0.562500 0.750000
vt 0.562500 0.671875
vt 0.562500 0.765625
vt 0.899631 0.564586
vt 0.899631 0.489355
vt 0.918439 0.489355
vt 0.937246 0.489355
vt 0.956054 0.489355
vt 0.974862 0.489355
vt 0.974862 0.508162
vt 0.974862 0.526970
vt 0.974862 0.545778
vt 0.974862 0.564586
vt 0.956054 0.564586
vt 0.937246 0.564586
vt 0.918439 0.564586
vt 0.880823 0.621009
vt 0.899631 0.621009
vt 0.899631 0.639816
vt 0.880823 0.639816
vt 0.852612 0.526970
vt 0.862015 0.526970
vt 0.862015 0.536374
vt 0.852612 0.536374
vt 0.852612 0.630413
vt 0.862015 0.630413
vt 0.862015 0.639816
vt 0.852612 0.639816
vt 0.852612 0.592797
vt 0.862015 0.592797
vt 0.862015 0.602201
vt 0.852612 0.602201
vt 0.880823 0.583393
vt 0.899631 0.583393
vt 0.899631 0.602201
vt 0.880823 0.602201
vt 0.852612 0.555182
vt 0.862015 0.555182
vt 0.862015 0.564586
vt 0.852612 0.564586
vt 0.852612 0.517566
vt 0.862015 0.517566
vt 0.852612 0.442336
vt 0.862015 0.442336
vt 0.862015 0.451739
vt 0.852612 0.451739
vt 0.880823 0.432932
vt 0.899631 0.432932
vt 0.899631 0.451739
vt 0.880823 0.451739
vt 0.852612 0.404720
vt 0.862015 0.404720
vt 0.862015 0.414124
vt 0.852612 0.414124
vt 0.468750 0.093750
vt 0.500000 0.093750
vt 0.500000 0.125000
vt 0.468750 0.125000
vt 0.562500 0.062500
vt 0.625000 0.062500
vt 0.625000 0.125000
vt 0.562500 0.125000
vt 0.500000 0.062500
vt 0.500000 0.000000
vt 0.562500 0.000000
vt 0.500000 0.031250
vt 0.625000 0.000000
vt 0.843208 0.536374
vt 0.852612 0.545778
vt 0.843208 0.545778
vt 0.843208 0.451739
vt 0.852612 0.461143
vt 0.843208 0.461143
vt 0.852612 0.348297
vt 0.862015 0.348297
vt 0.862015 0.357701
vt 0.852612 0.357701
vt 0.852612 0.470547
vt 0.843208 0.470547
vt 0.843208 0.526970
vt 0.468750 0.156250
vt 0.500000 0.156250
vt 0.500000 0.187500
vt 0.468750 0.187500
vt 0.862015 0.432932
vt 0.862015 0.423528
vt 0.843208 0.564586
vt 0.852612 0.573989
vt 0.843208 0.573989
vt 0.843208 0.414124
vt 0.852612 0.423528
vt 0.843208 0.423528
vt 0.852612 0.432932
vt 0.862015 0.573989
vt 0.862015 0.461143
vt 0.862015 0.470547
vt 0.562500 0.437500
vt 0.625000 0.437500
vt 0.625000 0.500000
vt 0.625000 0.750000
vt 0.562500 0.593750
vt 0.562500 0.515625
vt 0.862015 0.611605
vt 0.852612 0.611605
vt 0.437500 0.156250
vt 0.437500 0.187500
vt 0.843208 0.611605
vt 0.852612 0.621009
vt 0.843208 0.621009
vt 0.852612 0.583393
vt 0.843208 0.583393
vt 0.862015 0.545778
vt 0.862015 0.583393
vt 0.500000 0.750000
vt 0.562500 0.781250
vt 0.562500 0.796875
vt 0.562500 0.812500
vt 0.500000 0.812500
vt 0.500000 0.781250
vt 0.625000 0.812500
vt 0.843208 0.432932
vt 0.843208 0.442336
vt 0.671604 0.454024
vt 0.500000 0.437500
vt 0.500000 0.718750
vt 0.500000 0.687500
vt 0.500000 0.656250
vt 0.500000 0.625000
vt 0.681008 0.566581
vt 0.862015 0.508162
vt 0.852612 0.508162
vt 0.843208 0.508162
vt 0.843208 0.517566
vt 0.843208 0.555182
vt 0.843208 0.592797
vt 0.843208 0.602201
vt 0.843208 0.479951
vt 0.843208 0.338893
vt 0.822287 0.220213
vt 0.801367 0.101532
vt 0.801367 0.129234
vt 0.801367 0.156935
vt 0.822287 0.276126
vt 0.843208 0.395316
vt 0.843208 0.404720
vt 0.862015 0.621009
vt 0.562500 0.687500
vt 0.562500 0.703125
vt 0.562500 0.609375
vt 0.880823 0.470547
vt 0.899631 0.470547
vt 0.862015 0.395316
vt 0.562500 0.187500
vt 0.880823 0.376509
vt 0.899631 0.376509
vt 0.142917 0.481824
vt 0.263333 0.481824
vt 0.263333 0.602240
vt 0.142917 0.602240
vt 0.754561 0.520121
vt 0.790797 0.520121
vt 0.790797 0.556357
vt 0.754561 0.556357
vt 0.142917 0.722656
vt 0.263333 0.722656
vt 0.263333 0.843072
vt 0.142917 0.843072
vt 0.263333 0.963488
vt 0.142917 0.963488
vt 0.022501 0.722656
vt 0.022501 0.843072
vt 0.383749 0.722656
vt 0.383749 0.843072
vt 0.562500 0.718750
vt 0.562500 0.625000
vt 0.562500 0.531250
vt 0.437500 0.125000
vt 0.843208 0.348297
vt 0.843208 0.357701
vt 0.852612 0.338893
vt 0.862015 0.338893
vt 0.437500 0.093750
vt 0.437500 0.062500
vt 0.468750 0.062500
vt 0.852612 0.395316
vt 0.843208 0.630413
vt 0.843208 0.639816
vn -0.8794 0.2265 0.4187
vn 0.0133 0.9949 -0.1003
vn 0.0569 0.9917 -0.1149
vn 0.3159 0.0558 0.9471
vn 0.6803 0.0917 -0.7272
vn 0.1924 -0.0080 0.9813
vn 0.4125 -0.0172 0.9108
vn 0.4274 0.0783 0.9006
vn 0.9979 0.0533 0.0376
vn 0.3549 0.0760 -0.9318
vn -0.6638 0.0731 -0.7444
vn -0.6247 0.1127 -0.7727
vn -0.8306 0.0314 0.5560
vn -0.5055 0.0183 0.8626
vn -0.5172 0.1859 0.8354
vn -0.4797 -0.0675 0.8749
vn -0.3362 -0.0541 0.9402
vn -0.3874 0.1533 0.9091
vn 0.7811 -0.0569 -0.6218
vn -0.3540 -0.0487 -0.9340
vn -0.3855 0.0122 0.9226
vn -0.2850 -0.0416 -0.9576
vn 0.6414 -0.0590 -0.7650
vn -0.6684 0.0245 0.7434
vn -0.6223 -0.0364 -0.7820
vn -0.8271 -0.0585 -0.5590
vn -0.7578 0.1437 -0.6365
vn 0.4572 -0.0075 0.8893
vn -0.8294 0.0206 -0.5583
vn -0.9405 0.0553 -0.3353
vn 0.6070 0.0001 0.7947
vn -0.3075 0.0512 -0.9502
vn 0.3595 -0.0146 -0.9330
vn 0.2183 -0.0113 0.9758
vn -0.7373 0.0283 0.6750
vn 0.2771 -0.0097 0.9608
vn 0.4549 -0.0150 0.8904
vn 0.7988 0.0937 -0.5942
vn 0.4169 -0.0028 0.9090
vn 0.7265 0.0113 0.6871
vn 0.6331 0.0615 0.7716
vn 0.2026 -0.1031 -0.9738
vn -0.3877 0.0633 -0.9196
vn 0.6031 -0.0084 0.7976
vn -0.8577 0.0039 -0.5141
vn 0.2771 -0.0125 0.9607
vn 0.2183 -0.0083 0.9759
vn 0.2016 -0.0210 0.9792
vn 0.1745 -0.0249 0.9843
vn 0.2495 0.0873 0.9644
vn -0.4664 -0.0217 -0.8843
vn -0.5091 0.0874 -0.8563
vn -0.9091 -0.0877 0.4073
vn -0.6877 -0.0818 0.7214
vn -0.7003 0.2170 0.6801
vn 0.3951 0.0295 0.9182
vn -0.4728 0.1222 0.8726
vn -0.6019 0.0030 -0.7985
vn 0.4728 -0.1222 -0.8726
vn -0.3817 -0.5537 0.7401
vn -0.2808 0.8331 0.4766
vn -0.9219 0.0488 -0.3842
vn -0.7393 0.0304 0.6727
vn -0.6692 0.0264 0.7426
vn -0.3381 0.0102 0.9411
vn -0.3381 0.0091 0.9411
vn -0.3855 0.0108 0.9226
vn -0.5087 0.0185 0.8608
vn -0.5086 0.0186 0.8608
vn -0.5055 0.0184 0.8627
vn -0.9058 0.0313 0.4225
vn -0.9117 0.0359 0.4092
vn -0.8348 0.0332 0.5496
vn -0.5859 -0.0448 -0.8092
vn -0.6872 -0.0236 -0.7261
vn -0.7705 0.0659 -0.6340
vn 0.3616 -0.0541 -0.9308
vn 0.3157 -0.0492 -0.9476
vn 0.3112 0.0699 -0.9478
vn 0.9996 -0.0232 -0.0129
vn 0.9928 -0.0414 -0.1127
vn 0.9955 0.0707 -0.0634
vn 0.4335 -0.0174 0.9010
vn 0.4349 -0.0184 0.9003
vn 0.4163 -0.0188 0.9091
vn 0.1553 -0.0069 0.9878
vn 0.1553 -0.0057 0.9879
vn 0.1924 -0.0067 0.9813
usemtl Material.001
s off
f 71/1/1 24/2/1 4/3/1 35/4/1
f 40/5/2 88/6/2 87/7/2
f 6/8/3 7/9/3 27/10/3 13/11/3 37/12/3 4/13/3 24/14/3 10/15/3 34/16/3 2/17/3 31/18/3 17/19/3 42/20/3
f 69/21/4 31/22/4 2/23/4 23/24/4
f 1/25/5 19/26/5 3/27/5 123/28/5
f 134/29/6 39/30/6 9/31/6 41/32/6
f 133/33/7 36/34/7 18/35/7 5/36/7
f 66/37/8 42/38/8 17/39/8 46/40/8
f 132/41/9 32/42/9 15/43/9 14/44/9
f 131/45/10 30/46/10 19/26/10 1/25/10
f 130/47/11 28/48/11 20/49/11 93/50/11
f 61/51/12 37/52/12 13/53/12 53/54/12
f 129/55/13 26/56/13 11/57/13 16/58/13
f 128/59/14 22/60/14 21/61/14 96/62/14
f 58/63/15 34/64/15 10/65/15 57/66/15
f 55/67/16 58/63/16 57/66/16 21/61/16 22/60/16
f 9/68/17 23/69/17 58/63/17 55/67/17 95/70/17
f 23/69/18 2/71/18 34/64/18 58/63/18
f 111/72/19 123/28/19 112/73/19 65/74/19
f 52/75/20 93/50/20 124/76/20 106/77/20
f 127/78/21 95/79/21 55/80/21 99/81/21
f 106/77/22 124/76/22 107/82/22 63/83/22
f 49/84/23 1/25/23 123/28/23 111/72/23
f 126/85/24 94/86/24 54/87/24 102/88/24
f 51/89/25 61/51/25 53/54/25 20/49/25 28/48/25
f 11/57/26 35/4/26 61/51/26 51/89/26 92/90/26
f 35/4/27 4/3/27 37/52/27 61/51/27
f 29/91/28 14/44/28 122/92/28 114/93/28
f 25/94/29 16/58/29 125/95/29 104/96/29
f 125/95/30 92/90/30 51/89/30 105/97/30
f 14/44/31 15/43/31 8/98/31 122/92/31
f 124/76/32 91/99/32 50/100/32 107/82/32
f 70/101/33 27/102/33 7/103/33 6/104/33 40/5/33 88/6/33 38/105/33 86/106/33
f 5/36/34 18/35/34 12/107/34 121/108/34
f 101/109/35 126/85/35 102/88/35 60/110/35
f 117/111/36 121/108/36 119/112/36 68/113/36
f 114/93/37 122/92/37 115/114/37 67/115/37
f 123/28/38 3/27/38 47/116/38 112/73/38
f 44/117/39 66/37/39 46/40/39 18/35/39 36/34/39
f 15/118/40 40/5/40 87/7/40 80/119/40 85/120/40 66/121/40 44/122/40 8/123/40
f 40/5/41 6/104/41 42/124/41 66/121/41 85/120/41 80/119/41 87/7/41
f 25/94/42 104/96/42 62/125/42 103/126/42 52/75/42 106/77/42 63/83/42 107/127/42 50/128/42 70/101/42 86/106/42 38/105/42 88/6/42 40/5/42 15/118/42 32/129/42 47/130/42 3/131/42 19/132/42 30/133/42 48/134/42 109/135/42 64/136/42 108/137/42 49/84/42 111/72/42 65/74/42 110/138/42 29/91/42 114/93/42 67/115/42 113/139/42 45/140/42 117/111/42 68/113/42 116/141/42 33/142/42 98/143/42 59/144/42 97/145/42 56/146/42 101/147/42 60/148/42 100/149/42
f 93/50/43 20/49/43 91/99/43 124/76/43
f 122/92/44 8/98/44 44/117/44 115/114/44
f 104/96/45 125/95/45 105/97/45 62/125/45
f 45/140/46 5/36/46 121/108/46 117/111/46
f 121/108/47 12/107/47 43/150/47 119/112/47
f 43/150/48 69/21/48 23/24/48 9/31/48 39/30/48
f 18/35/49 46/40/49 69/21/49 43/150/49 12/107/49
f 46/40/50 17/39/50 31/22/50 69/21/50
f 80/119/2 82/151/2 83/152/2
f 38/105/2 86/106/2 90/153/2
f 20/49/51 53/54/51 70/154/51 50/100/51 91/99/51
f 53/54/52 13/53/52 27/155/52 70/154/52
f 54/156/53 71/1/53 35/4/53 11/57/53 26/56/53
f 21/61/54 57/66/54 71/157/54 54/87/54 94/86/54
f 57/158/55 10/159/55 24/2/55 71/1/55
f 72/160/56 73/161/56 75/162/56 74/163/56
f 74/164/57 75/165/57 79/166/57 78/167/57
f 78/168/58 79/169/58 77/170/58 76/171/58
f 76/171/59 77/170/59 73/172/59 72/173/59
f 74/174/60 78/168/60 76/171/60 72/175/60
f 79/169/61 75/176/61 73/177/61 77/170/61
f 80/119/2 83/152/2 85/120/2
f 85/120/2 84/178/2 66/121/2
f 85/120/2 83/152/2 84/178/2
f 83/152/2 81/179/2 84/178/2
f 90/153/2 89/180/2 81/179/2
f 90/153/2 86/106/2 89/180/2
f 86/106/2 70/101/2 89/180/2
f 83/152/2 90/153/2 81/179/2
f 83/152/2 82/151/2 90/153/2
f 82/151/2 38/105/2 90/153/2
f 87/7/2 82/151/2 80/119/2
f 87/7/2 88/6/2 82/151/2
f 88/6/2 38/105/2 82/151/2
f 16/58/62 11/57/62 92/90/62 125/95/62
f 56/181/63 96/62/63 126/85/63 101/109/63
f 96/62/64 21/61/64 94/86/64 126/85/64
f 98/182/65 127/78/65 99/81/65 59/183/65
f 33/142/66 41/184/66 127/78/66 98/182/66
f 41/184/67 9/185/67 95/79/67 127/78/67
f 97/186/68 128/59/68 96/62/68 56/181/68
f 59/187/69 99/188/69 128/59/69 97/186/69
f 99/188/70 55/67/70 22/60/70 128/59/70
f 100/149/71 129/55/71 16/58/71 25/94/71
f 60/148/72 102/189/72 129/55/72 100/149/72
f 102/189/73 54/156/73 26/56/73 129/55/73
f 103/126/74 130/47/74 93/50/74 52/75/74
f 62/125/75 105/97/75 130/47/75 103/126/75
f 105/97/76 51/89/76 28/48/76 130/47/76
f 108/137/77 131/45/77 1/25/77 49/84/77
f 64/136/78 109/135/78 131/45/78 108/137/78
f 109/135/79 48/134/79 30/46/79 131/45/79
f 110/138/80 132/41/80 14/44/80 29/91/80
f 65/74/81 112/73/81 132/41/81 110/138/81
f 112/73/82 47/116/82 32/42/82 132/41/82
f 113/139/83 133/33/83 5/36/83 45/140/83
f 67/115/84 115/114/84 133/33/84 113/139/84
f 115/114/85 44/117/85 36/34/85 133/33/85
f 116/190/86 134/29/86 41/32/86 33/191/86
f 68/113/87 119/112/87 134/29/87 116/190/87
f 119/112/88 43/150/88 39/30/88 134/29/88
l 118 64
l 120 50
l 47 88
l 19 38
l 48 86
l 63 118
l 48 120
l 135 120
l 107 109
l 118 135
